# xmcd
#
# Track frame offsets:
#	150
#	18286
#	40900
#	59730
#	78708
#
# Disc length: 1251 seconds
#
# Revision: 0
# Processed by: cddbd v1.5.2PL0 Copyright (c) Steve Scherf et al.
# Submitted via: audiograbber 1.83.01
#
DISCID=3d04e105
DTITLE=Crowbar Blues - Trouble Set To Music
DYEAR=2007
DGENRE=Blues
TTITLE0=Trouble Set To Music
TTITLE1=Crowbar Blues
TTITLE2=Long Nite
TTITLE3=Soldier Blues
TTITLE4=Sticks And Stones
EXTD=
EXTT0=
EXTT1=
EXTT2=
EXTT3=
EXTT4=
PLAYORDER=
